<svg width="100" height="100" viewBox="0 0 100 100" fill="none" xmlns="http://www.w3.org/2000/svg">
<path fill-rule="evenodd" clip-rule="evenodd" d="M47.7145 6.8458C49.1291 6.05205 50.8708 6.05205 52.2833 6.8458C59.2729 10.7687 80.3062 22.5771 87.2979 26.5C88.7125 27.2916 89.5833 28.7583 89.5833 30.3458C89.5833 38.1916 89.5833 61.8062 89.5833 69.652C89.5833 71.2395 88.7125 72.7062 87.2979 73.5C80.3083 77.4229 59.275 89.2312 52.2833 93.1541C50.8687 93.9479 49.127 93.9479 47.7145 93.1541C40.725 89.2312 19.6916 77.4229 12.7 73.5C11.2875 72.7062 10.4166 71.2416 10.4166 69.6541C10.4166 61.8083 10.4166 38.1937 10.4166 30.3479C10.4166 28.7604 11.2875 27.2937 12.702 26.5C19.6895 22.5771 40.727 10.7687 47.7145 6.8458Z" fill="#00549D"/>
<path fill-rule="evenodd" clip-rule="evenodd" d="M11.05 71.675C10.4958 70.9333 10.4166 70.2291 10.4166 69.2812C10.4166 61.4812 10.4166 38.0021 10.4166 30.2C10.4166 28.6208 11.2854 27.1625 12.6958 26.375C19.6604 22.475 40.6229 10.7354 47.5875 6.83331C48.9979 6.04373 50.9083 6.06039 52.3187 6.84998C59.2833 10.75 80.175 22.3896 87.1395 26.2896C87.702 26.6062 88.1312 26.9875 88.5145 27.4896L11.05 71.675Z" fill="#0086D4"/>
<path fill-rule="evenodd" clip-rule="evenodd" d="M50 20.8334C66.098 20.8334 79.1667 33.9021 79.1667 50C79.1667 66.098 66.098 79.1667 50 79.1667C33.9021 79.1667 20.8334 66.098 20.8334 50C20.8334 33.9021 33.9021 20.8334 50 20.8334ZM50 35.4167C58.048 35.4167 64.5834 41.95 64.5834 50C64.5834 58.048 58.048 64.5834 50 64.5834C41.9521 64.5834 35.4167 58.048 35.4167 50C35.4167 41.95 41.95 35.4167 50 35.4167Z" fill="white"/>
<path fill-rule="evenodd" clip-rule="evenodd" d="M88.5104 27.5104C89.5854 28.5166 89.5646 30.0333 89.5646 31.227C89.5646 39.1333 89.4979 61.6208 89.5833 69.527C89.5917 70.352 89.3188 71.2208 88.9104 71.875L49.1521 50L88.5104 27.5104Z" fill="#0075C0"/>
<path fill-rule="evenodd" clip-rule="evenodd" d="M64.5834 43.75H68.75V56.25H64.5834V43.75ZM79.1667 43.75H83.3334V56.25H79.1667V43.75Z" fill="white"/>
<path fill-rule="evenodd" clip-rule="evenodd" d="M60.4166 47.9166H72.9166V52.0833H60.4166V47.9166ZM75 47.9166H87.5V52.0833H75V47.9166Z" fill="white"/>
</svg>
