<svg width="100" height="100" viewBox="0 0 100 100" fill="none" xmlns="http://www.w3.org/2000/svg">
<rect width="100" height="100" rx="10" fill="black"/>
<path d="M24.684 58.716C25.476 58.716 26.124 58.656 26.628 58.536C27.156 58.392 27.576 58.212 27.888 57.996C28.2 57.756 28.416 57.48 28.536 57.168C28.656 56.856 28.716 56.508 28.716 56.124C28.716 55.308 28.332 54.636 27.564 54.108C26.796 53.556 25.476 52.968 23.604 52.344C22.788 52.056 21.972 51.732 21.156 51.372C20.34 50.988 19.608 50.52 18.96 49.968C18.312 49.392 17.784 48.708 17.376 47.916C16.968 47.1 16.764 46.116 16.764 44.964C16.764 43.812 16.98 42.78 17.412 41.868C17.844 40.932 18.456 40.14 19.248 39.492C20.04 38.844 21 38.352 22.128 38.016C23.256 37.656 24.528 37.476 25.944 37.476C27.624 37.476 29.076 37.656 30.3 38.016C31.524 38.376 32.532 38.772 33.324 39.204L31.704 43.632C31.008 43.272 30.228 42.96 29.364 42.696C28.524 42.408 27.504 42.264 26.304 42.264C24.96 42.264 23.988 42.456 23.388 42.84C22.812 43.2 22.524 43.764 22.524 44.532C22.524 44.988 22.632 45.372 22.848 45.684C23.064 45.996 23.364 46.284 23.748 46.548C24.156 46.788 24.612 47.016 25.116 47.232C25.644 47.424 26.22 47.628 26.844 47.844C28.14 48.324 29.268 48.804 30.228 49.284C31.188 49.74 31.98 50.28 32.604 50.904C33.252 51.528 33.732 52.26 34.044 53.1C34.356 53.94 34.512 54.96 34.512 56.16C34.512 58.488 33.696 60.3 32.064 61.596C30.432 62.868 27.972 63.504 24.684 63.504C23.58 63.504 22.584 63.432 21.696 63.288C20.808 63.168 20.016 63.012 19.32 62.82C18.648 62.628 18.06 62.424 17.556 62.208C17.076 61.992 16.668 61.788 16.332 61.596L17.916 57.132C18.66 57.54 19.572 57.912 20.652 58.248C21.756 58.56 23.1 58.716 24.684 58.716ZM43.5491 50.508C43.5491 51.732 43.6931 52.836 43.9811 53.82C44.2931 54.804 44.7251 55.656 45.2771 56.376C45.8531 57.072 46.5491 57.612 47.3651 57.996C48.1811 58.38 49.1171 58.572 50.1731 58.572C51.2051 58.572 52.1291 58.38 52.9451 57.996C53.7851 57.612 54.4811 57.072 55.0331 56.376C55.6091 55.656 56.0411 54.804 56.3291 53.82C56.6411 52.836 56.7971 51.732 56.7971 50.508C56.7971 49.284 56.6411 48.18 56.3291 47.196C56.0411 46.188 55.6091 45.336 55.0331 44.64C54.4811 43.92 53.7851 43.368 52.9451 42.984C52.1291 42.6 51.2051 42.408 50.1731 42.408C49.1171 42.408 48.1811 42.612 47.3651 43.02C46.5491 43.404 45.8531 43.956 45.2771 44.676C44.7251 45.372 44.2931 46.224 43.9811 47.232C43.6931 48.216 43.5491 49.308 43.5491 50.508ZM62.5931 50.508C62.5931 52.26 62.3771 53.844 61.9451 55.26C61.5131 56.652 60.9011 57.876 60.1091 58.932C59.3411 59.988 58.4171 60.864 57.3371 61.56C56.2571 62.256 55.0691 62.76 53.7731 63.072C53.8931 63.552 54.1571 63.936 54.5651 64.224C54.9731 64.536 55.4891 64.788 56.1131 64.98C56.7371 65.172 57.4571 65.316 58.2731 65.412C59.1131 65.508 60.0131 65.592 60.9731 65.664L59.8211 69.768C57.9491 69.696 56.3411 69.504 54.9971 69.192C53.6771 68.904 52.5491 68.496 51.6131 67.968C50.7011 67.44 49.9691 66.792 49.4171 66.024C48.8891 65.256 48.4811 64.368 48.1931 63.36C46.7051 63.168 45.3251 62.76 44.0531 62.136C42.7811 61.488 41.6771 60.624 40.7411 59.544C39.8051 58.464 39.0731 57.168 38.5451 55.656C38.0171 54.144 37.7531 52.428 37.7531 50.508C37.7531 48.372 38.0891 46.5 38.7611 44.892C39.4331 43.26 40.3331 41.892 41.4611 40.788C42.6131 39.684 43.9331 38.856 45.4211 38.304C46.9331 37.752 48.5171 37.476 50.1731 37.476C51.8771 37.476 53.4851 37.752 54.9971 38.304C56.5091 38.856 57.8291 39.684 58.9571 40.788C60.0851 41.892 60.9731 43.26 61.6211 44.892C62.2691 46.5 62.5931 48.372 62.5931 50.508ZM83.9425 58.176V63H67.2745V38.052H72.8905V58.176H83.9425Z" fill="#FFFBFB"/>
</svg>
