<svg width="100" height="100" viewBox="0 0 100 100" fill="none" xmlns="http://www.w3.org/2000/svg">
<path d="M37.7604 14.5834L37.5 31.25H10.4166C10.4166 31.25 10.4166 25.9021 10.4166 21.875C10.4166 17.848 13.6812 14.5834 17.7083 14.5834C21.7354 14.5834 37.7604 14.5834 37.7604 14.5834Z" fill="url(#paint0_linear_53_241)"/>
<path d="M62.5187 11.723L66.3729 5.22922C66.9604 4.23963 66.6333 2.96047 65.6458 2.37297C64.6562 1.78338 63.3791 2.11255 62.7895 3.10005L58.7375 9.92505C56.0187 8.90838 53.0791 8.33338 50 8.33338C46.9208 8.33338 43.9812 8.90838 41.2604 9.92713L37.2083 3.10213C36.6208 2.11463 35.3437 1.78547 34.352 2.37505C33.3625 2.96255 33.0375 4.24172 33.625 5.2313L37.4791 11.725C30.602 15.725 25.7958 22.8959 25.1041 31.2521H74.8958C74.2041 22.8938 69.3979 15.723 62.5187 11.723Z" fill="url(#paint1_linear_53_241)"/>
<path d="M62.5187 11.723L66.3729 5.22922C66.9604 4.23963 66.6333 2.96047 65.6458 2.37297C64.6562 1.78338 63.3791 2.11255 62.7895 3.10005L58.7375 9.92505C56.0187 8.90838 53.0791 8.33338 50 8.33338C46.9208 8.33338 43.9812 8.90838 41.2604 9.92713L37.2083 3.10213C36.6208 2.11463 35.3437 1.78547 34.352 2.37505C33.3625 2.96255 33.0375 4.24172 33.625 5.2313L37.4791 11.725C30.602 15.725 25.7958 22.8959 25.1041 31.2521H74.8958C74.2041 22.8938 69.3979 15.723 62.5187 11.723Z" fill="url(#paint2_linear_53_241)"/>
<path opacity="0.05" d="M39.5833 25C37.2854 25 35.4166 23.1312 35.4166 20.8333C35.4166 18.5354 37.2854 16.6666 39.5833 16.6666C41.8812 16.6666 43.75 18.5354 43.75 20.8333C43.75 23.1312 41.8812 25 39.5833 25Z" fill="black"/>
<path opacity="0.05" d="M39.5834 23.9584C37.8605 23.9584 36.4584 22.5563 36.4584 20.8334C36.4584 19.1105 37.8605 17.7084 39.5834 17.7084C41.3063 17.7084 42.7084 19.1105 42.7084 20.8334C42.7084 22.5563 41.3063 23.9584 39.5834 23.9584Z" fill="black"/>
<path d="M39.5833 22.9167C40.7339 22.9167 41.6667 21.9839 41.6667 20.8333C41.6667 19.6827 40.7339 18.75 39.5833 18.75C38.4327 18.75 37.5 19.6827 37.5 20.8333C37.5 21.9839 38.4327 22.9167 39.5833 22.9167Z" fill="white"/>
<path opacity="0.05" d="M60.4167 25C58.1187 25 56.25 23.1312 56.25 20.8333C56.25 18.5354 58.1187 16.6666 60.4167 16.6666C62.7146 16.6666 64.5833 18.5354 64.5833 20.8333C64.5833 23.1312 62.7146 25 60.4167 25Z" fill="black"/>
<path opacity="0.05" d="M60.4166 23.9583C58.6937 23.9583 57.2916 22.5562 57.2916 20.8333C57.2916 19.1103 58.6937 17.7083 60.4166 17.7083C62.1395 17.7083 63.5416 19.1103 63.5416 20.8333C63.5416 22.5562 62.1395 23.9583 60.4166 23.9583Z" fill="black"/>
<path d="M60.4167 22.9167C61.5673 22.9167 62.5 21.9839 62.5 20.8333C62.5 19.6827 61.5673 18.75 60.4167 18.75C59.2661 18.75 58.3334 19.6827 58.3334 20.8333C58.3334 21.9839 59.2661 22.9167 60.4167 22.9167Z" fill="white"/>
<path d="M82.2916 29.1667C81.2625 29.1667 19.5 29.1667 17.7083 29.1667C13.6812 29.1667 10.4166 25.9021 10.4166 21.875C10.4166 21.875 10.4166 74.0979 10.4166 78.125C10.4166 82.1521 13.6812 85.4167 17.7083 85.4167C19.5 85.4167 89.5833 85.4167 89.5833 85.4167C89.5833 85.4167 89.5833 40.4854 89.5833 36.4583C89.5833 32.4313 86.3187 29.1667 82.2916 29.1667Z" fill="url(#paint3_linear_53_241)"/>
<path d="M82.2916 43.75H80.2083C79.6333 43.75 79.1666 44.2167 79.1666 44.7917V96.875C79.1666 97.45 79.6333 97.9167 80.2083 97.9167H82.2916C86.3187 97.9167 89.5833 94.6521 89.5833 90.625V36.4584C89.5833 40.4855 86.3187 43.75 82.2916 43.75Z" fill="url(#paint4_linear_53_241)"/>
<path opacity="0.05" d="M31.4978 85.4166H43.0103L47.7186 75.4124C48.1457 74.5062 48.9978 73.9645 49.9999 73.9645C51.002 73.9645 51.854 74.5062 52.2811 75.4124L56.9874 85.4166H68.502L56.1353 59.1416C58.1791 57.3645 59.3749 54.7853 59.3749 52.0833C59.3749 48.1062 56.8436 44.5916 53.1249 43.277V39.5833C53.1249 37.8603 51.7228 36.4583 49.9999 36.4583C48.277 36.4583 46.8749 37.8603 46.8749 39.5833V43.277C43.1561 44.5916 40.6249 48.1062 40.6249 52.0833C40.6249 54.7853 41.8207 57.3645 43.8645 59.1416L31.4978 85.4166ZM49.9999 48.9583C51.7228 48.9583 53.1249 50.3603 53.1249 52.0833C53.1249 53.8062 51.7228 55.2083 49.9999 55.2083C48.277 55.2083 46.8749 53.8062 46.8749 52.0833C46.8749 50.3603 48.277 48.9583 49.9999 48.9583Z" fill="black"/>
<path opacity="0.05" d="M30.3479 85.4166H44.1625L48.6625 75.8562C49.0229 75.0895 49.7187 75.0062 50.0021 75.0062C50.2854 75.0062 50.9791 75.0895 51.3416 75.8562L55.8375 85.4166H69.6521L57.4 59.3812C59.3125 57.4437 60.4166 54.8208 60.4166 52.0833C60.4166 47.9145 57.9146 44.2041 54.1666 42.5687V39.5833C54.1666 37.2854 52.2979 35.4166 50 35.4166C47.7021 35.4166 45.8333 37.2854 45.8333 39.5833V42.5687C42.0854 44.2041 39.5833 47.9125 39.5833 52.0833C39.5833 54.8208 40.6875 57.4437 42.6 59.3812L30.3479 85.4166ZM50 50C51.1479 50 52.0833 50.9354 52.0833 52.0833C52.0833 53.2312 51.1479 54.1666 50 54.1666C48.8521 54.1666 47.9166 53.2312 47.9166 52.0833C47.9166 50.9354 48.8521 50 50 50Z" fill="black"/>
<path d="M70.3499 91.7938L54.8416 58.8375C56.9479 57.3229 58.3333 54.8688 58.3333 52.0833C58.3333 48.2125 55.6666 44.9771 52.0833 44.0458V39.5833C52.0833 38.4333 51.1499 37.5 49.9999 37.5C48.8499 37.5 47.9166 38.4333 47.9166 39.5833V44.0458C44.3333 44.9771 41.6666 48.2125 41.6666 52.0833C41.6666 54.8688 43.052 57.3229 45.1583 58.8375L29.6583 91.7771C28.7749 93.6542 29.2395 95.9958 30.9499 97.1688C33.1312 98.6646 36.027 97.8125 37.1041 95.5229L46.777 74.9688C48.0604 72.2417 51.9416 72.2417 53.2249 74.9688L62.8979 95.5229C63.6062 97.0333 65.1041 97.9167 66.6687 97.9167C67.5249 97.9167 68.402 97.65 69.1749 97.0792C70.7958 95.8833 71.2083 93.6167 70.3499 91.7938ZM49.9999 47.9167C52.2979 47.9167 54.1666 49.7854 54.1666 52.0833C54.1666 54.3813 52.2979 56.25 49.9999 56.25C47.702 56.25 45.8333 54.3813 45.8333 52.0833C45.8333 49.7854 47.702 47.9167 49.9999 47.9167Z" fill="url(#paint5_linear_53_241)"/>
<defs>
<linearGradient id="paint0_linear_53_241" x1="10.4166" y1="22.9167" x2="37.7604" y2="22.9167" gradientUnits="userSpaceOnUse">
<stop offset="0.143" stop-color="#073042"/>
<stop offset="1" stop-color="#073042"/>
</linearGradient>
<linearGradient id="paint1_linear_53_241" x1="44.6187" y1="0.427133" x2="50.802" y2="35.498" gradientUnits="userSpaceOnUse">
<stop stop-color="#3DDC84"/>
<stop offset="0.794" stop-color="#37C777"/>
</linearGradient>
<linearGradient id="paint2_linear_53_241" x1="50" y1="2.08338" x2="50" y2="31.25" gradientUnits="userSpaceOnUse">
<stop offset="0.772" stop-opacity="0"/>
<stop offset="0.94" stop-opacity="0.15"/>
</linearGradient>
<linearGradient id="paint3_linear_53_241" x1="42.75" y1="16.1729" x2="56.002" y2="91.3375" gradientUnits="userSpaceOnUse">
<stop offset="0.155" stop-color="#4F8FFF"/>
<stop offset="0.925" stop-color="#3F73CC"/>
</linearGradient>
<linearGradient id="paint4_linear_53_241" x1="79.3583" y1="38.2605" x2="89.6687" y2="96.7292" gradientUnits="userSpaceOnUse">
<stop offset="0.143" stop-color="#073042"/>
<stop offset="1" stop-color="#073042"/>
</linearGradient>
<linearGradient id="paint5_linear_53_241" x1="40.3791" y1="39.1646" x2="51.2312" y2="100.704" gradientUnits="userSpaceOnUse">
<stop stop-color="#073042"/>
<stop offset="0.857" stop-color="#073042"/>
</linearGradient>
</defs>
</svg>
