<svg width="100" height="100" viewBox="0 0 100 100" fill="none" xmlns="http://www.w3.org/2000/svg">
<path d="M54.1666 35.4167H37.5C29.4458 35.4167 22.9166 28.8875 22.9166 20.8333C22.9166 12.7792 29.4458 6.25 37.5 6.25H54.1666V35.4167Z" fill="#E64A19"/>
<path d="M52.0833 64.5833H37.5C29.4458 64.5833 22.9166 58.0541 22.9166 50C22.9166 41.9458 29.4458 35.4166 37.5 35.4166H52.0833V64.5833Z" fill="#7C4DFF"/>
<path d="M37.5 93.75C29.4458 93.75 22.9166 87.2209 22.9166 79.1667C22.9166 71.1125 29.4458 64.5834 37.5 64.5834H52.0833V79.1667C52.0833 87.2209 45.5541 93.75 37.5 93.75Z" fill="#66BB6A"/>
<path d="M66.6667 35.4167H52.0834V6.25H66.6667C74.7209 6.25 81.25 12.7792 81.25 20.8333C81.25 28.8875 74.7209 35.4167 66.6667 35.4167Z" fill="#FF7043"/>
<path d="M66.6667 64.5833C74.7209 64.5833 81.25 58.0541 81.25 50C81.25 41.9458 74.7209 35.4166 66.6667 35.4166C58.6126 35.4166 52.0834 41.9458 52.0834 50C52.0834 58.0541 58.6126 64.5833 66.6667 64.5833Z" fill="#29B6F6"/>
</svg>
