<svg width="100" height="100" viewBox="0 0 100 100" fill="none" xmlns="http://www.w3.org/2000/svg">
<path d="M93.75 33.75L83.3333 39.4792L72.9166 49.375V83.3333H87.5C90.952 83.3333 93.75 80.5354 93.75 77.0833V33.75Z" fill="#4CAF50"/>
<path d="M6.25 33.75L13.7792 37.3125L27.0833 49.375V83.3333H12.5C9.04792 83.3333 6.25 80.5354 6.25 77.0833V33.75Z" fill="#1E88E5"/>
<path d="M72.9167 23.3334L50 40.5209L27.0833 23.3334L25 35.4167L27.0833 49.375L50 66.5625L72.9167 49.375L75 35.4167L72.9167 23.3334Z" fill="#E53935"/>
<path d="M6.25 25.6208V33.75L27.0833 49.375V23.3333L20.575 18.4562C19.025 17.2937 17.1417 16.6666 15.2042 16.6666C10.2583 16.6666 6.25 20.675 6.25 25.6208Z" fill="#C62828"/>
<path d="M93.75 25.6208V33.75L72.9166 49.375V23.3333L79.425 18.4562C80.975 17.2937 82.8583 16.6666 84.7958 16.6666C89.7416 16.6666 93.75 20.675 93.75 25.6208Z" fill="#FBC02D"/>
</svg>
