<svg width="100" height="100" viewBox="0 0 100 100" fill="none" xmlns="http://www.w3.org/2000/svg">
<rect width="100" height="100" rx="10" fill="#F0DB4F"/>
<path d="M54.2222 45.7778H44.8889V80.2223C42.8889 87.1112 34.8889 83.1112 33.5556 79.1112L26.4445 83.5556C37.2889 100.089 55.3333 89.5556 54.2222 80.2223V45.7778Z" fill="black"/>
<path d="M89.1112 52.6667L82.0001 57.3333C79.8667 53.4222 76.8149 53.1852 75.5556 53.5556C71.4667 53.7333 71.0371 57.1852 71.3334 58.8889C71.8667 61.2 80.0001 64.7408 84.0001 66.2222C92.0001 70.3111 92.5186 78.1482 91.7778 81.5556C89.8223 90.9778 79.1112 92.2963 74.0001 91.7778C66.0001 91.9556 61.1852 85.7778 59.7778 82.6667L66.8889 78.2222C70.4445 83.5556 73.7778 84.2413 77.7778 83.5556C85.5556 82.2222 83.1112 75.4982 77.7778 73.7778C72.2667 72 67.3334 68.4445 65.5556 66.8889C60.9334 62.0889 62.4445 54.5185 63.7778 51.3333C74.6223 40.1333 86.6667 46.8889 89.1112 52.6667Z" fill="black"/>
</svg>
