<svg width="100" height="114" viewBox="0 0 100 114" fill="none" xmlns="http://www.w3.org/2000/svg">
<rect x="13" y="11" width="73" height="89" fill="white"/>
<path d="M0.473877 0.426544C0.473877 0.663506 1.23217 9.14692 2.13264 19.2417C3.03312 29.3839 4.64449 47.3934 5.68715 59.2417C9.14686 98.2938 9.47862 101.564 9.6208 101.754C9.99994 102.085 49.0995 112.891 49.9999 112.891C50.9478 112.844 90.0473 102.085 90.3791 101.706C90.4739 101.611 91.3744 92.0853 92.417 80.5213C93.4597 68.9573 95.4502 46.2085 96.9194 30C98.3412 13.7915 99.526 0.426544 99.526 0.284363C99.526 0.142181 77.2511 0 49.9999 0C21.0426 0 0.473877 0.189575 0.473877 0.426544ZM81.327 21.6588C81.2322 22.1327 80.9952 24.4076 80.8056 26.7773C80.6635 29.0995 80.4265 31.6114 80.2843 32.3223L79.9999 33.6493H56.3033H32.5592L32.8909 37.5355C33.0805 39.7156 33.3649 42.4645 33.5071 43.6967L33.7914 45.9716H56.4928H79.1943L78.9573 48.436C78.6729 50.7583 76.7772 72.2275 76.0189 80.8531L75.7345 84.6919L63.2227 88.1517C56.3507 90.0474 50.3791 91.6114 49.9999 91.6114C49.6208 91.6114 43.6492 90.0474 36.7772 88.1517L24.3127 84.6919L23.744 78.7204C23.4597 75.4502 23.0805 70.9953 22.8909 68.8152L22.6066 64.9289H29.0521H35.4502L35.7819 69.8578L36.1137 74.7393L42.6066 76.4929C46.1611 77.4408 49.4312 78.1991 49.9526 78.1991C50.4265 78.1991 53.6966 77.4408 57.1563 76.4455C63.4123 74.7393 63.5071 74.6919 63.744 73.2701C64.0284 71.5166 64.9289 61.327 64.9289 59.8104V58.7678H43.3649C22.18 58.7678 21.8009 58.7678 21.8009 57.8199C21.8009 56.4929 19.0047 24.7867 18.7203 22.6066L18.4834 20.8531H50.0473C79.8578 20.8531 81.5639 20.9005 81.327 21.6588Z" fill="#E44D26"/>
<path fill-rule="evenodd" clip-rule="evenodd" d="M50 7H92.3645L83.9901 97.6404L50 107V92L75.5 84.5L79 46H50V33.5H80L81.5 21H50V7ZM50 58.8256V78.5L63.5 74.5L65 59L50 58.8256Z" fill="#F16529"/>
</svg>
