<svg width="84" height="85" viewBox="0 0 84 85" fill="none" xmlns="http://www.w3.org/2000/svg">
<path d="M2.14209 82.2178L7.75479 61.7275C4.29217 55.7314 2.47127 48.927 2.47335 41.958C2.48377 20.1551 20.2261 2.41699 42.031 2.41699C52.6127 2.42116 62.5422 6.54006 70.0112 14.0132C77.4782 21.4885 81.5908 31.4222 81.5866 41.9893C81.5783 63.7921 63.8318 81.5324 42.031 81.5324H42.0144C35.3954 81.5303 28.8889 79.8698 23.1116 76.7176L2.14209 82.2178Z" fill="#40C351"/>
<path d="M2.14211 83.2596C1.8671 83.2596 1.60043 83.1512 1.4025 82.9512C1.14208 82.6866 1.03999 82.3012 1.13791 81.945L6.63603 61.8692C3.22757 55.8148 1.42959 48.9396 1.43375 41.9602C1.44209 19.5802 19.6532 1.37537 42.0311 1.37537C52.8856 1.37953 63.0839 5.60677 70.7488 13.2779C78.4136 20.9511 82.6325 31.1473 82.6284 41.9893C82.62 64.3672 64.4069 82.5741 42.0311 82.5741C35.3871 82.5721 28.8139 80.9324 22.9804 77.8302L2.4067 83.2242C2.3192 83.2492 2.2317 83.2596 2.14211 83.2596Z" fill="#40C351"/>
<path d="M42.0311 2.41703C52.6127 2.42119 62.5422 6.54009 70.0113 14.0133C77.4782 21.4886 81.5908 31.4222 81.5867 41.9893C81.5783 63.7922 63.8319 81.5324 42.0311 81.5324H42.0144C35.3954 81.5303 28.8889 79.8698 23.1116 76.7176L2.14213 82.2178L7.75483 61.7275C4.2922 55.7315 2.47131 48.927 2.47339 41.958C2.48381 20.1552 20.2261 2.41703 42.0311 2.41703ZM42.0311 0.333618C19.0802 0.333618 0.400397 19.0051 0.38998 41.958C0.387897 48.9729 2.15879 55.8856 5.51725 62.0046L0.131638 81.6699C-0.0642025 82.3887 0.135805 83.1554 0.660824 83.6846C1.05667 84.0846 1.59211 84.3033 2.14213 84.3033C2.31922 84.3033 2.49631 84.2804 2.67131 84.2346L22.8533 78.9427C28.7452 82.0012 35.3496 83.6158 42.0144 83.6179C64.9819 83.6179 83.6618 64.9443 83.6722 41.9914C83.6763 30.8681 79.3491 20.4093 71.4884 12.5424C63.6235 4.67336 53.1627 0.337785 42.0311 0.333618Z" fill="white"/>
<path d="M65.286 18.7343C59.0774 12.5216 50.8251 9.09852 42.0414 9.09644C23.9074 9.09644 9.15897 23.8386 9.15064 41.9601C9.14855 48.1708 10.8861 54.2168 14.1779 59.4524L14.9613 60.6962L11.6382 72.8237L24.0824 69.5611L25.2846 70.2736C30.3306 73.2696 36.1183 74.853 42.0185 74.8551H42.031C60.1525 74.8551 74.9009 60.1108 74.9072 41.9872C74.9093 33.2056 71.4946 24.947 65.286 18.7343Z" fill="white"/>
<path fill-rule="evenodd" clip-rule="evenodd" d="M32.1432 25.4283C31.4036 23.7824 30.6244 23.749 29.9181 23.7199C29.341 23.6949 28.6826 23.6969 28.0243 23.6969C27.3659 23.6969 26.295 23.9449 25.3888 24.9345C24.4825 25.9241 21.9282 28.3138 21.9282 33.1765C21.9282 38.0391 25.47 42.7393 25.9638 43.3977C26.4576 44.056 32.8015 54.3543 42.8477 58.3169C51.196 61.6087 52.896 60.9545 54.7086 60.79C56.5211 60.6254 60.5567 58.4003 61.3797 56.0919C62.2026 53.7834 62.2026 51.8063 61.9568 51.3938C61.7088 50.9813 61.0505 50.7354 60.0629 50.2396C59.0754 49.7437 54.2148 47.354 53.3085 47.0249C52.4022 46.6957 51.7439 46.5311 51.0834 47.5207C50.4251 48.5083 48.5313 50.7354 47.9542 51.3938C47.3771 52.0542 46.8 52.1376 45.8124 51.6417C44.8249 51.1459 41.6414 50.1042 37.8642 46.7374C34.9266 44.1185 32.9432 40.883 32.3661 39.8934C31.789 38.9058 32.3036 38.3704 32.7995 37.8766C33.2432 37.4329 33.787 36.7224 34.2828 36.1453C34.7766 35.5682 34.9412 35.1557 35.2704 34.4973C35.5996 33.8369 35.435 33.2598 35.187 32.766C34.9433 32.2702 33.0224 27.3825 32.1432 25.4283Z" fill="#40C351"/>
</svg>
