<svg width="50" height="50" viewBox="0 0 50 50" fill="none" xmlns="http://www.w3.org/2000/svg">
<g clip-path="url(#clip0_65_394)">
<rect width="50" height="50" rx="5" fill="white"/>
<path d="M23.0804 6.70539C15.8304 7.46432 9.57142 12.4911 7.27678 19.3929C4.25892 28.4554 8.20535 38.125 16.6518 42.4197C17.7411 42.9643 19.0804 43.4822 19.4286 43.4822C19.7589 43.4822 20.125 43.259 20.25 42.9911C20.3571 42.759 20.4107 39.1875 20.3125 39.0893C20.2768 39.0625 20.0893 39.0804 19.8839 39.134C19.6786 39.1786 19.0089 39.2232 18.3929 39.2322C17.0714 39.2411 16.3393 39.0536 15.4911 38.5C14.75 38.0179 14.4375 37.634 13.8839 36.4911C13.3304 35.3482 12.8929 34.7322 12.3214 34.3125C11.4464 33.6607 11.25 33.4732 11.25 33.259C11.25 32.9822 11.7321 32.8125 12.3036 32.8929C13.2768 33.0268 14.2589 33.7411 14.9643 34.8393C15.6607 35.9197 16.3929 36.5 17.3839 36.759C18.0536 36.9375 19.0536 36.8661 19.8214 36.5893C20.3661 36.3929 20.4018 36.3661 20.4643 36.0268C20.5804 35.4286 20.8125 34.8929 21.1696 34.3572L21.5179 33.8482L21.1786 33.7947C19.3393 33.509 18.2411 33.1875 17.1429 32.625C14.7321 31.384 13.4464 29.2322 13.125 25.884C12.8839 23.4465 13.3304 21.5804 14.5357 20L14.9732 19.4197L14.8304 19.0625C14.7321 18.7947 14.6964 18.3572 14.6964 17.2768C14.6964 16.0179 14.7232 15.7679 14.9196 15.134L15.1339 14.4197L15.5179 14.3929C16.3839 14.3304 18.2321 15.0179 19.6429 15.9375L20.2946 16.3482L21.4196 16.125C24.0179 15.6072 26.3214 15.625 28.8393 16.1697L29.6875 16.3572L30.5357 15.8393C32.0446 14.9286 33.2857 14.4554 34.2589 14.4375L34.8571 14.4197L35.0179 14.8482C35.4554 16.0179 35.5357 17.6161 35.2143 18.8929L35.0714 19.4643L35.3839 19.8393C36.5714 21.3036 37.0268 22.9018 36.9375 25.2054C36.7946 28.8929 35.4821 31.2768 32.8571 32.625C31.7411 33.2054 30.7857 33.4732 28.7679 33.8036L28.4732 33.8482L28.75 34.1965C29.0893 34.625 29.4107 35.3393 29.5446 35.9643C29.6071 36.2679 29.6429 37.5893 29.6429 39.5982C29.6429 41.8572 29.6696 42.8304 29.75 42.9911C29.875 43.259 30.2411 43.4822 30.5714 43.4822C30.9196 43.4822 32.2589 42.9643 33.3482 42.4197C41.0179 38.5268 45.0536 30.1161 43.3393 21.625C42.3661 16.7947 39.4732 12.509 35.2679 9.68753C34.2589 9.00896 32.0714 7.95539 30.8482 7.54468C28.4464 6.75896 25.5625 6.44646 23.0804 6.70539Z" fill="black"/>
</g>
<defs>
<clipPath id="clip0_65_394">
<rect width="50" height="50" fill="white"/>
</clipPath>
</defs>
</svg>
