<svg width="100" height="100" viewBox="0 0 100 100" fill="none" xmlns="http://www.w3.org/2000/svg">
<g clip-path="url(#clip0_52_186)">
<path fill-rule="evenodd" clip-rule="evenodd" d="M0 10C0 4.47716 4.47715 0 10 0H90C95.5228 0 100 4.47715 100 10V90C100 95.5228 95.5229 100 90 100H10C4.47716 100 0 95.5229 0 90V10Z" fill="white"/>
<path fill-rule="evenodd" clip-rule="evenodd" d="M41.6962 52.776C41.6962 52.776 39.3077 54.1659 43.3978 54.6354C48.3544 55.2014 50.8861 55.1199 56.3463 54.087C56.3463 54.087 57.7839 54.9871 59.7906 55.7658C47.5466 61.0124 32.0804 55.4623 41.6962 52.776ZM40.1995 45.9296C40.1995 45.9296 37.5199 47.9129 41.6137 48.3362C46.9085 48.883 51.0879 48.9277 58.3245 47.5352C58.3245 47.5352 59.3237 48.5495 60.8961 49.1035C46.0945 53.4328 29.6094 49.4444 40.1995 45.9296Z" fill="#3174B9"/>
<path fill-rule="evenodd" clip-rule="evenodd" d="M52.8114 34.3144C55.8297 37.7887 52.0202 40.9134 52.0202 40.9134C52.0202 40.9134 59.6807 36.9597 56.1622 32.0068C52.8772 27.3901 50.3575 25.0965 63.997 17.187C63.997 17.187 42.5865 22.5321 52.8114 34.3144Z" fill="#CA3132"/>
<path fill-rule="evenodd" clip-rule="evenodd" d="M69.0044 57.8405C69.0044 57.8405 70.7724 59.2983 67.0568 60.4256C59.9914 62.5656 37.6445 63.211 31.4372 60.5107C29.2074 59.5395 33.391 58.1932 34.7071 57.9089C36.0798 57.6122 36.8632 57.6661 36.8632 57.6661C34.3818 55.9189 20.8243 61.0979 29.9778 62.5838C54.9379 66.6308 75.4778 60.7618 69.0044 57.8405ZM42.8454 38.8351C42.8454 38.8351 31.4797 41.5354 38.8211 42.5169C41.9219 42.9315 48.0987 42.836 53.8567 42.353C58.5611 41.9582 63.2831 41.1136 63.2831 41.1136C63.2831 41.1136 61.6256 41.8249 60.4246 42.6435C48.881 45.68 26.5844 44.2658 33.0039 41.1619C38.4315 38.5363 42.8454 38.8351 42.8454 38.8351ZM63.2359 50.2314C74.9694 44.1356 69.5444 38.2763 65.7567 39.0659C64.8307 39.2595 64.4152 39.4265 64.4152 39.4265C64.4152 39.4265 64.7607 38.8859 65.4175 38.6535C72.9093 36.0206 78.67 46.4208 63.002 50.5395C63.0014 50.5395 63.182 50.3766 63.2359 50.2314Z" fill="#3174B9"/>
<path fill-rule="evenodd" clip-rule="evenodd" d="M56.1622 4.41174C56.1622 4.41174 62.659 10.9127 49.9984 20.9062C39.8452 28.9256 47.6836 33.4967 49.9953 38.7214C44.0676 33.3743 39.7196 28.6662 42.6363 24.2856C46.9184 17.8552 58.7836 14.7367 56.1622 4.41174Z" fill="#CA3132"/>
<path fill-rule="evenodd" clip-rule="evenodd" d="M43.9997 66.7549C55.2606 67.475 72.5565 66.3549 72.9669 61.0254C72.9669 61.0254 72.1794 63.0456 63.6593 64.6481C54.0466 66.4576 42.1886 66.247 35.158 65.0865C35.158 65.0865 36.5986 66.2787 43.9997 66.7549Z" fill="#3174B9"/>
<path fill-rule="evenodd" clip-rule="evenodd" d="M72.4465 76.312H72.1041V76.1201H73.0281V76.312H72.6857V77.2707H72.4465V76.312ZM74.2903 76.3598H74.2862L73.9459 77.2702H73.7897L73.4514 76.3598H73.4473V77.2702H73.2201V76.1196H73.5536L73.867 76.9335L74.1803 76.1196H74.5108V77.2702H74.2908L74.2903 76.3598ZM42.1544 87.1158C41.0924 88.0362 39.9697 88.5539 38.9617 88.5539C37.5257 88.5539 36.7465 87.6912 36.7465 86.3107C36.7465 84.816 37.5807 83.7224 40.9196 83.7224H42.1538L42.1544 87.1158ZM45.0855 90.4226V80.1858C45.0855 77.5696 43.5935 75.843 39.9967 75.843C37.8982 75.843 36.0586 76.3613 34.5629 77.0217L34.9935 78.8349C36.1717 78.4022 37.6948 78.0012 39.19 78.0012C41.262 78.0012 42.1538 78.8349 42.1538 80.5609V81.8553H41.1183C36.085 81.8553 33.8138 83.808 33.8138 86.7439C33.8138 89.2735 35.3105 90.7116 38.128 90.7116C39.9391 90.7116 41.2921 89.964 42.5554 88.8699L42.7852 90.4226H45.0855ZM54.8684 90.4226H51.2135L46.8126 76.1035H50.0052L52.7367 84.9027L53.3447 87.5464C54.7226 83.7224 55.7005 79.8403 56.1897 76.1035H59.2942C58.4631 80.8182 56.9658 85.9947 54.8684 90.4226ZM68.8949 87.1158C67.8298 88.0362 66.7072 88.5539 65.7012 88.5539C64.2652 88.5539 63.487 87.6912 63.487 86.3107C63.487 84.816 64.3218 83.7224 67.6586 83.7224H68.8949V87.1158ZM71.8271 90.4226V80.1858C71.8271 77.5696 70.3304 75.843 66.7373 75.843C64.6367 75.843 62.7976 76.3613 61.3019 77.0217L61.7325 78.8349C62.9107 78.4022 64.4369 78.0012 65.9326 78.0012C68.0015 78.0012 68.8944 78.8349 68.8944 80.5609V81.8553H67.8589C62.8251 81.8553 60.5553 83.808 60.5553 86.7439C60.5553 89.2735 62.0489 90.7116 64.867 90.7116C66.6797 90.7116 68.0306 89.964 69.297 88.8699L69.5278 90.4226H71.8271ZM30.5999 92.8557C29.7646 94.0764 28.4137 95.043 26.9367 95.5882L25.4893 93.8835C26.6145 93.306 27.5784 92.3738 28.0272 91.5064C28.4137 90.7334 28.575 89.7394 28.575 87.3602V71.0105H31.6904V87.1345C31.6904 90.3168 31.4362 91.6029 30.5999 92.8557Z" fill="#CA3132"/>
</g>
<defs>
<clipPath id="clip0_52_186">
<rect width="100" height="100" fill="white"/>
</clipPath>
</defs>
</svg>
