<svg width="100" height="100" viewBox="0 0 100 100" fill="none" xmlns="http://www.w3.org/2000/svg">
<path d="M88.164 50.414L93.8047 40.8593C94.0312 40.3828 94.0625 39.8359 93.8906 39.3437L82.7187 7.34371C82.375 6.36714 81.3515 5.81246 80.3594 6.05464L47.5234 14.0546C46.8984 14.2109 46.3828 14.6562 46.1406 15.2578L42.6484 24H32C31.4453 24 30.9062 24.2343 30.5312 24.6406L6.53123 50.6406C5.78904 51.4453 5.82811 52.6953 6.61717 53.4453L31.789 77.4453C32.1562 77.8046 32.6562 78 33.164 78H44.6406L48.1406 86.7421C48.3984 87.3906 48.9765 87.8515 49.6562 87.9687L84.5781 93.9687C84.6875 93.9921 84.8047 94 84.914 94C85.8437 94 86.664 93.3593 86.8672 92.4296L93.9531 59.9687C94.0625 59.4687 93.9765 58.9453 93.7031 58.5L88.164 50.414ZM42.6484 24L70.8359 18.8359L56 48H22.3359L42.6484 24ZM44.6484 78L22.3359 56H56L73.5 82.3359L44.6484 78ZM80.7734 77.7968L64 52L78.664 22.8359L88.164 50.4218L80.7734 77.7968Z" fill="black"/>
</svg>
