<svg width="100" height="100" viewBox="0 0 100 100" fill="none" xmlns="http://www.w3.org/2000/svg">
<path d="M50.098 10.4167C46.8584 10.4271 44.6126 10.7125 41.898 11.1812C33.8813 12.5771 32.4209 15.5083 32.4209 20.9104V29.1667H51.1709V33.3333H31.7084H22.6459C17.1542 33.3333 12.348 35.9208 10.8251 42.1229C9.10423 49.2417 9.02714 53.7 10.8251 61.1333C12.1896 66.6771 15.1959 70.8333 20.6896 70.8333H28.2563V60.2C28.2563 54.0208 33.8521 47.9167 40.2646 47.9167H55.3396C60.5959 47.9167 65.7563 44.0375 65.7563 38.7979V20.9104C65.7563 15.8292 62.0917 12.0292 56.9688 11.1771C57.0959 11.1646 53.3105 10.4042 50.098 10.4167ZM39.7146 18.75C41.4251 18.75 42.8396 20.1604 42.8396 21.8792C42.8396 23.6146 41.4251 25 39.7146 25C37.9709 25 36.5896 23.6167 36.5896 21.8792C36.5896 20.1667 37.9709 18.75 39.7146 18.75Z" fill="#0277BD"/>
<path d="M48.0791 89.5833C51.3187 89.5729 53.5645 89.2875 56.2791 88.8187C64.2958 87.4229 65.7562 84.4916 65.7562 79.0895V70.8333H47.0062V66.6666H66.4708H75.5333C81.0249 66.6666 85.8312 64.0791 87.3541 57.877C89.0749 50.7583 89.152 46.3 87.3541 38.8666C85.9874 33.3229 82.9812 29.1666 77.4874 29.1666H69.9208V39.8C69.9208 45.9791 64.3249 52.0833 57.9124 52.0833H42.8374C37.5812 52.0833 32.4208 55.9625 32.4208 61.202V79.0895C32.4208 84.1708 36.0854 87.9708 41.2083 88.8229C41.0812 88.8354 44.8666 89.5958 48.0791 89.5833ZM58.4645 81.25C56.7541 81.25 55.3395 79.8395 55.3395 78.1208C55.3395 76.3854 56.7541 75 58.4645 75C60.2083 75 61.5895 76.3833 61.5895 78.1208C61.5895 79.8333 60.2062 81.25 58.4645 81.25Z" fill="#FFC107"/>
</svg>
