<svg width="50" height="50" viewBox="0 0 50 50" fill="none" xmlns="http://www.w3.org/2000/svg">
<g clip-path="url(#clip0_65_398)">
<path d="M25.0082 0C14.5709 0 11.5184 0.0107715 10.925 0.0599998C8.78314 0.238091 7.45032 0.575433 5.99827 1.29855C4.87926 1.85439 3.99672 2.49866 3.12573 3.40182C1.5395 5.04888 0.57814 7.0752 0.230121 9.48388C0.0609306 10.6532 0.0117018 10.8917 0.00170499 16.8645C-0.00213123 18.8554 0.00170499 21.4757 0.00170499 24.9902C0.00170499 35.4218 0.0132325 38.4721 0.0632356 39.0645C0.236281 41.1493 0.563134 42.4609 1.25532 43.8956C2.57815 46.642 5.10458 48.7037 8.08096 49.473C9.11154 49.7384 10.2498 49.8846 11.711 49.9538C12.3302 49.9808 18.6405 50 24.9547 50C31.2689 50 37.5831 49.9923 38.1868 49.9615C39.8788 49.8819 40.8613 49.75 41.9477 49.4692C44.9433 48.696 47.4236 46.6651 48.7733 43.8802C49.452 42.4801 49.7962 41.1185 49.9519 39.1425C49.9858 38.7117 50 31.8431 50 24.9837C50 18.1231 49.9846 11.2671 49.9508 10.8363C49.7931 8.82843 49.4489 7.47833 48.7483 6.05127C48.1734 4.88309 47.5351 4.0107 46.6084 3.11873C44.9544 1.53859 42.9317 0.576964 40.5214 0.229247C39.3535 0.060378 39.1209 0.0103748 33.1451 0H25.0082Z" fill="url(#paint0_radial_65_398)"/>
<path d="M25.0082 0C14.5709 0 11.5184 0.0107715 10.925 0.0599998C8.78314 0.238091 7.45032 0.575433 5.99827 1.29855C4.87926 1.85439 3.99672 2.49866 3.12573 3.40182C1.5395 5.04888 0.57814 7.0752 0.230121 9.48388C0.0609306 10.6532 0.0117018 10.8917 0.00170499 16.8645C-0.00213123 18.8554 0.00170499 21.4757 0.00170499 24.9902C0.00170499 35.4218 0.0132325 38.4721 0.0632356 39.0645C0.236281 41.1493 0.563134 42.4609 1.25532 43.8956C2.57815 46.642 5.10458 48.7037 8.08096 49.473C9.11154 49.7384 10.2498 49.8846 11.711 49.9538C12.3302 49.9808 18.6405 50 24.9547 50C31.2689 50 37.5831 49.9923 38.1868 49.9615C39.8788 49.8819 40.8613 49.75 41.9477 49.4692C44.9433 48.696 47.4236 46.6651 48.7733 43.8802C49.452 42.4801 49.7962 41.1185 49.9519 39.1425C49.9858 38.7117 50 31.8431 50 24.9837C50 18.1231 49.9846 11.2671 49.9508 10.8363C49.7931 8.82843 49.4489 7.47833 48.7483 6.05127C48.1734 4.88309 47.5351 4.0107 46.6084 3.11873C44.9544 1.53859 42.9317 0.576964 40.5214 0.229247C39.3535 0.060378 39.1209 0.0103748 33.1451 0H25.0082Z" fill="url(#paint1_radial_65_398)"/>
<path d="M25.0082 0C14.5709 0 11.5184 0.0107715 10.925 0.0599998C8.78314 0.238091 7.45032 0.575433 5.99827 1.29855C4.87926 1.85439 3.99672 2.49866 3.12573 3.40182C1.5395 5.04888 0.57814 7.0752 0.230121 9.48388C0.0609306 10.6532 0.0117018 10.8917 0.00170499 16.8645C-0.00213123 18.8554 0.00170499 21.4757 0.00170499 24.9902C0.00170499 35.4218 0.0132325 38.4721 0.0632356 39.0645C0.236281 41.1493 0.563134 42.4609 1.25532 43.8956C2.57815 46.642 5.10458 48.7037 8.08096 49.473C9.11154 49.7384 10.2498 49.8846 11.711 49.9538C12.3302 49.9808 18.6405 50 24.9547 50C31.2689 50 37.5831 49.9923 38.1868 49.9615C39.8788 49.8819 40.8613 49.75 41.9477 49.4692C44.9433 48.696 47.4236 46.6651 48.7733 43.8802C49.452 42.4801 49.7962 41.1185 49.9519 39.1425C49.9858 38.7117 50 31.8431 50 24.9837C50 18.1231 49.9846 11.2671 49.9508 10.8363C49.7931 8.82843 49.4489 7.47833 48.7483 6.05127C48.1734 4.88309 47.5351 4.0107 46.6084 3.11873C44.9544 1.53859 42.9317 0.576964 40.5214 0.229247C39.3535 0.060378 39.1209 0.0103748 33.1451 0H25.0082Z" fill="url(#paint2_radial_65_398)"/>
<path d="M25.0082 0C14.5709 0 11.5184 0.0107715 10.925 0.0599998C8.78314 0.238091 7.45032 0.575433 5.99827 1.29855C4.87926 1.85439 3.99672 2.49866 3.12573 3.40182C1.5395 5.04888 0.57814 7.0752 0.230121 9.48388C0.0609306 10.6532 0.0117018 10.8917 0.00170499 16.8645C-0.00213123 18.8554 0.00170499 21.4757 0.00170499 24.9902C0.00170499 35.4218 0.0132325 38.4721 0.0632356 39.0645C0.236281 41.1493 0.563134 42.4609 1.25532 43.8956C2.57815 46.642 5.10458 48.7037 8.08096 49.473C9.11154 49.7384 10.2498 49.8846 11.711 49.9538C12.3302 49.9808 18.6405 50 24.9547 50C31.2689 50 37.5831 49.9923 38.1868 49.9615C39.8788 49.8819 40.8613 49.75 41.9477 49.4692C44.9433 48.696 47.4236 46.6651 48.7733 43.8802C49.452 42.4801 49.7962 41.1185 49.9519 39.1425C49.9858 38.7117 50 31.8431 50 24.9837C50 18.1231 49.9846 11.2671 49.9508 10.8363C49.7931 8.82843 49.4489 7.47833 48.7483 6.05127C48.1734 4.88309 47.5351 4.0107 46.6084 3.11873C44.9544 1.53859 42.9317 0.576964 40.5214 0.229247C39.3535 0.060378 39.1209 0.0103748 33.1451 0H25.0082Z" fill="url(#paint3_radial_65_398)"/>
<path d="M24.5919 6C19.5431 6 18.9095 6.02205 16.9265 6.11223C14.9474 6.20279 13.5965 6.51589 12.4144 6.97529C11.1917 7.44975 10.1546 8.08445 9.12125 9.11737C8.08717 10.1499 7.45198 11.1863 6.97561 12.4078C6.51471 13.5893 6.201 14.9396 6.11193 16.9164C6.02324 18.8979 6 19.5315 6 24.5766C6 29.6217 6.02247 30.2529 6.11231 32.2344C6.20334 34.212 6.51666 35.5619 6.97599 36.7431C7.45121 37.9649 8.08637 39.0013 9.12008 40.0338C10.153 41.0671 11.1902 41.7034 12.4121 42.1779C13.5949 42.6373 14.9462 42.9504 16.9249 43.0409C18.9079 43.1311 19.5411 43.1531 24.5896 43.1531C29.6388 43.1531 30.2705 43.1311 32.2535 43.0409C34.2326 42.9503 35.585 42.6373 36.7678 42.1779C37.9902 41.7034 39.0258 41.0671 40.0587 40.0338C41.0928 39.0013 41.728 37.9649 42.2044 36.7435C42.6614 35.5619 42.9751 34.2116 43.068 32.2348C43.1571 30.2533 43.1804 29.6217 43.1804 24.5766C43.1804 19.5315 43.1571 18.8983 43.068 16.9168C42.9751 14.9392 42.6614 13.5893 42.2044 12.4082C41.728 11.1863 41.0928 10.1499 40.0587 9.11737C39.0246 8.08405 37.9905 7.44935 36.7667 6.97527C35.5815 6.51589 34.2299 6.20279 32.2508 6.11223C30.2678 6.02205 29.6365 6 24.5861 6H24.5919ZM22.9242 9.34766C23.4192 9.34689 23.9715 9.34766 24.5919 9.34766C29.5556 9.34766 30.1439 9.36546 32.104 9.45447C33.9165 9.5373 34.9003 9.83993 35.5556 10.0942C36.4231 10.4309 37.0417 10.8334 37.6919 11.4836C38.3426 12.1338 38.7454 12.753 39.0831 13.6199C39.3376 14.2739 39.6408 15.2569 39.7233 17.0682C39.8124 19.0264 39.8318 19.6147 39.8318 24.5723C39.8318 29.5299 39.8124 30.1182 39.7233 32.0765C39.6404 33.8877 39.3376 34.8707 39.0831 35.5247C38.7462 36.3917 38.3426 37.009 37.6919 37.6587C37.0413 38.3089 36.4235 38.7114 35.5556 39.0481C34.9011 39.3035 33.9165 39.6054 32.104 39.6882C30.1443 39.7772 29.5556 39.7966 24.5919 39.7966C19.6279 39.7966 19.0396 39.7772 17.0799 39.6882C15.2673 39.6046 14.2836 39.302 13.6279 39.0477C12.7603 38.711 12.1406 38.3085 11.49 37.6583C10.8393 37.0082 10.4365 36.3905 10.0988 35.5232C9.84433 34.8692 9.54108 33.8861 9.45859 32.0749C9.36951 30.1166 9.35169 29.5284 9.35169 24.5677C9.35169 19.607 9.36951 19.0218 9.45859 17.0635C9.54148 15.2523 9.84433 14.2693 10.0988 13.6145C10.4357 12.7476 10.8393 12.1283 11.49 11.4782C12.1406 10.828 12.7603 10.4255 13.6279 10.088C14.2832 9.83257 15.2673 9.53072 17.0799 9.4475C18.7948 9.37009 19.4594 9.34689 22.9242 9.34299L22.9242 9.34766ZM34.5153 12.4321C33.2837 12.4321 32.2844 13.4295 32.2844 14.6605C32.2844 15.8913 33.2837 16.8897 34.5153 16.8897C35.7469 16.8897 36.7462 15.8913 36.7462 14.6605C36.7462 13.4299 35.7469 12.4314 34.5153 12.4314L34.5153 12.4321ZM24.5919 15.0367C19.3196 15.0367 15.045 19.3082 15.045 24.5766C15.045 29.845 19.3196 34.1145 24.5919 34.1145C29.8642 34.1145 34.1373 29.845 34.1373 24.5766C34.1373 19.3082 29.8638 15.0367 24.5915 15.0367H24.5919ZM24.5919 18.3844C28.0141 18.3844 30.7887 21.1566 30.7887 24.5766C30.7887 27.9962 28.0141 30.7688 24.5919 30.7688C21.1694 30.7688 18.3951 27.9962 18.3951 24.5766C18.3951 21.1566 21.1694 18.3844 24.5919 18.3844Z" fill="white"/>
</g>
<defs>
<radialGradient id="paint0_radial_65_398" cx="0" cy="0" r="1" gradientUnits="userSpaceOnUse" gradientTransform="translate(48.3855 23.4356) rotate(164.25) scale(31.9472 23.0164)">
<stop stop-color="#FF005F"/>
<stop offset="1" stop-color="#FC01D8"/>
</radialGradient>
<radialGradient id="paint1_radial_65_398" cx="0" cy="0" r="1" gradientUnits="userSpaceOnUse" gradientTransform="translate(13.2809 53.851) rotate(-90) scale(39.9109 42.3447)">
<stop stop-color="#FFCC00"/>
<stop offset="0.1242" stop-color="#FFCC00"/>
<stop offset="0.5672" stop-color="#FE4A05"/>
<stop offset="0.6942" stop-color="#FF0F3F"/>
<stop offset="1" stop-color="#FE0657" stop-opacity="0"/>
</radialGradient>
<radialGradient id="paint2_radial_65_398" cx="0" cy="0" r="1" gradientUnits="userSpaceOnUse" gradientTransform="translate(26.2635 49.2949) rotate(-59.8703) scale(16.5035 21.4857)">
<stop stop-color="#FFCC00"/>
<stop offset="1" stop-color="#FFCC00" stop-opacity="0"/>
</radialGradient>
<radialGradient id="paint3_radial_65_398" cx="0" cy="0" r="1" gradientUnits="userSpaceOnUse" gradientTransform="translate(6.78393 2.03599) rotate(164.274) scale(31.5928 10.7636)">
<stop stop-color="#780CFF"/>
<stop offset="1" stop-color="#820BFF" stop-opacity="0"/>
</radialGradient>
<clipPath id="clip0_65_398">
<rect width="50" height="50" fill="white"/>
</clipPath>
</defs>
</svg>
