<svg width="50" height="50" viewBox="0 0 50 50" fill="none" xmlns="http://www.w3.org/2000/svg">
<g clip-path="url(#clip0_65_391)">
<rect width="50" height="50" rx="7" fill="white"/>
<path d="M-1.58101 -6.21925C-3.17322 -6.07513 -4.68645 -5.50453 -6.01961 -4.54568C-6.40503 -4.26626 -7.07793 -3.63977 -7.37805 -3.28094C-8.08886 -2.42503 -8.6038 -1.49266 -8.89444 -0.527927C-9.01765 -0.119091 -9.13454 0.463276 -9.1756 0.895641C-9.20088 1.13094 -9.21036 8.22524 -9.21036 24.3963C-9.21036 49.5881 -9.22299 47.888 -9.03976 48.7263C-8.47427 51.3117 -6.51244 53.4794 -3.8398 54.4647C-3.22693 54.6912 -2.62669 54.8353 -1.83374 54.9471C-1.47044 54.9971 -0.377374 55 23.6448 55C44.2677 55 48.8043 54.9941 49.076 54.9618C51.0662 54.7265 52.7153 53.9823 54.1022 52.6941C55.4859 51.4028 56.2851 49.8675 56.5379 48.0145C56.5726 47.7616 56.5789 43.5379 56.5789 24.3374C56.5789 1.97214 56.5758 0.954464 56.5221 0.616222C56.402 -0.122032 56.2472 -0.68087 56.004 -1.25148C54.9457 -3.73978 52.6174 -5.5663 49.8405 -6.09278C48.9401 -6.26337 50.7787 -6.25161 23.6448 -6.24866C9.92777 -6.24572 -1.42305 -6.23102 -1.58101 -6.21925ZM13.902 12.3401C15.0772 12.5312 15.9712 13.3371 16.2113 14.4195C16.2461 14.5872 16.2555 14.746 16.2429 15.0431C16.2303 15.3872 16.2145 15.4784 16.1292 15.7166C15.8543 16.4843 15.3173 17.0284 14.5307 17.3402C14.1579 17.4902 13.9336 17.5284 13.4407 17.5284C13.0553 17.5255 12.9416 17.5167 12.7299 17.4578C11.8896 17.2284 11.283 16.7578 10.9134 16.0402C10.7112 15.646 10.6512 15.3901 10.6512 14.9254C10.6512 14.6107 10.667 14.4783 10.7207 14.293C10.7965 14.0313 10.9829 13.643 11.1346 13.4371C11.4189 13.0577 11.9338 12.6695 12.3824 12.5018C12.8373 12.3312 13.4534 12.2636 13.902 12.3401ZM31.0372 18.5726C32.4367 18.6902 33.6877 19.1491 34.5849 19.8814C35.6843 20.7785 36.3446 21.9874 36.6352 23.6492L36.7047 24.058L36.7142 30.2582L36.7237 36.4554L34.0479 36.4495L31.3689 36.4407L31.35 31.1464C31.331 25.3492 31.3468 25.7551 31.1478 25.1198C30.835 24.111 30.1305 23.4462 29.1164 23.1992C28.6963 23.0962 27.9381 23.0727 27.4705 23.1433C26.2163 23.3403 25.3729 24.0521 25.0222 25.208C24.82 25.8639 24.8358 25.461 24.8232 31.2111L24.8105 36.4554H22.1284H19.4431V27.661V18.8667H22.1284H24.8137V20.1079V21.3462L24.9495 21.1873C26.0458 19.8697 27.3126 19.0461 28.7374 18.7226C29.0722 18.6461 29.2554 18.6196 29.7893 18.5608C30.0042 18.5402 30.6992 18.5461 31.0372 18.5726ZM16.126 27.661V36.4554L13.4502 36.4495L10.7713 36.4407L10.7618 27.6905C10.7586 22.8786 10.7618 18.9226 10.7713 18.902C10.7807 18.8755 11.3494 18.8667 13.4565 18.8667H16.126V27.661Z" fill="#0076B4"/>
</g>
<defs>
<clipPath id="clip0_65_391">
<rect width="50" height="50" rx="7" fill="white"/>
</clipPath>
</defs>
</svg>
