<svg width="auto" height="auto" viewBox="0 0 231 43" fill="none" xmlns="http://www.w3.org/2000/svg">
<path d="M46.976 42H32.768L38.656 14.352L23.488 42H14.784L11.904 13.392L5.76 42H0L8.64 1.36H24.96L26.944 24.272L39.232 1.36H55.68L46.976 42ZM89.456 42H74.48L73.584 31.824H61.744L57.2 42H50.992L69.872 1.36H85.04L89.456 42ZM63.856 27.152H73.136L71.664 9.744L63.856 27.152ZM132.372 11.024C132.372 13.5413 131.668 15.8667 130.26 18C128.852 20.1333 126.527 21.7547 123.284 22.864L130.708 42H116.436L110.804 24.272H110.1L106.324 42H92.5L101.14 1.36H117.972C119.935 1.36 121.791 1.488 123.54 1.744C125.289 1.95733 126.804 2.42666 128.084 3.152C129.407 3.83466 130.452 4.816 131.22 6.096C131.988 7.33333 132.372 8.976 132.372 11.024ZM113.94 20.176C115.049 20.176 115.988 19.8133 116.756 19.088C117.567 18.32 118.207 17.4027 118.676 16.336C119.188 15.2693 119.551 14.1387 119.764 12.944C119.977 11.7067 120.084 10.64 120.084 9.744C120.084 8.63467 119.892 7.696 119.508 6.928C119.124 6.11733 118.292 5.712 117.012 5.712H114.132L110.932 20.176H113.94ZM158.216 13.136C158.344 12.496 158.408 11.6213 158.408 10.512C158.408 9.872 158.365 9.25333 158.28 8.656C158.195 8.016 158.045 7.46133 157.832 6.992C157.619 6.48 157.299 6.096 156.872 5.84C156.445 5.54133 155.891 5.392 155.208 5.392C154.44 5.392 153.736 5.56267 153.096 5.904C152.456 6.24533 151.88 6.69333 151.368 7.248C150.899 7.76 150.515 8.37867 150.216 9.104C149.96 9.78667 149.832 10.512 149.832 11.28C149.832 12.3893 150.109 13.2427 150.664 13.84C151.261 14.4373 152.029 14.928 152.968 15.312C153.907 15.696 154.973 16.016 156.168 16.272C157.363 16.528 158.6 16.8267 159.88 17.168C160.947 17.4667 162.013 17.8507 163.08 18.32C164.147 18.7893 165.085 19.4293 165.896 20.24C166.749 21.008 167.432 22.032 167.944 23.312C168.456 24.5493 168.712 26.1067 168.712 27.984C168.712 30.672 168.179 32.9333 167.112 34.768C166.045 36.6027 164.573 38.096 162.696 39.248C160.819 40.4 158.579 41.232 155.976 41.744C153.416 42.256 150.621 42.512 147.592 42.512C144.52 42.512 142.003 42.32 140.04 41.936C138.12 41.5093 136.605 41.0613 135.496 40.592C134.173 40.0373 133.192 39.3973 132.552 38.672L134.728 29.904H145.992C145.949 30.288 145.907 30.8213 145.864 31.504C145.821 32.144 145.8 32.656 145.8 33.04C145.8 33.552 145.864 34.0853 145.992 34.64C146.12 35.1947 146.312 35.7067 146.568 36.176C146.867 36.6453 147.272 37.0293 147.784 37.328C148.296 37.6267 148.936 37.776 149.704 37.776C150.557 37.776 151.304 37.584 151.944 37.2C152.627 36.816 153.181 36.3467 153.608 35.792C154.077 35.1947 154.419 34.5547 154.632 33.872C154.888 33.1467 155.016 32.4427 155.016 31.76C155.016 30.8213 154.781 30.032 154.312 29.392C153.885 28.752 153.288 28.2187 152.52 27.792C151.752 27.3227 150.856 26.9387 149.832 26.64C148.851 26.2987 147.827 25.9573 146.76 25.616C145.736 25.3173 144.648 24.9547 143.496 24.528C142.387 24.1013 141.363 23.504 140.424 22.736C139.485 21.968 138.696 21.008 138.056 19.856C137.459 18.6613 137.16 17.1467 137.16 15.312C137.16 12.5813 137.843 10.2987 139.208 8.464C140.616 6.58666 142.365 5.072 144.456 3.92C146.589 2.768 148.915 1.95733 151.432 1.488C153.949 0.975998 156.339 0.719997 158.6 0.719997C161.587 0.719997 164.147 1.08266 166.28 1.808C168.456 2.49066 170.099 3.30133 171.208 4.24L168.84 13.136H158.216ZM179.203 1.36H206.147L205.123 6.224H192.067L189.378 18.576H200.323L199.299 23.376H188.355L185.411 37.072H198.467L197.507 42H170.562L179.203 1.36ZM211.39 1.36H225.278L217.726 36.624H230.718L229.63 42H202.75L211.39 1.36Z" fill="#256FED"/>
</svg>
